<svg xmlns="http://www.w3.org/2000/svg" width="1200" height="1200" viewBox="0 0 1200 1200">
  <defs>
    <linearGradient id="bg" x1="0" x2="1" y1="0" y2="1">
      <stop offset="0%" stop-color="#DDD8EE"/>
      <stop offset="100%" stop-color="#F9F8FD"/>
    </linearGradient>
    <linearGradient id="card" x1="0" x2="0" y1="0" y2="1">
      <stop offset="0%" stop-color="#ffffff"/>
      <stop offset="100%" stop-color="#f6f1ea"/>
    </linearGradient>
  </defs>
  <rect width="1200" height="1200" fill="url(#bg)"/>
  <circle cx="210" cy="230" r="120" fill="#F9F8FD" opacity="0.8"/>
  <circle cx="975" cy="275" r="170" fill="#DDD8EE" opacity="0.6"/>
  <rect x="70" y="70" width="1060" height="1060" rx="56" fill="url(#card)" opacity="0.94"/>
  <rect x="150" y="180" width="900" height="170" rx="18" fill="#DDD8EE"/>
  <rect x="350" y="280" width="500" height="420" rx="36" fill="#8779B3" opacity="0.16"/>
  <ellipse cx="600" cy="720" rx="250" ry="40" fill="#d8d1c9"/>
  <rect x="455" y="330" width="290" height="330" rx="32" fill="#fbf8f4" stroke="#8779B3" stroke-width="8"/>
  <rect x="495" y="285" width="210" height="64" rx="18" fill="#8779B3"/>
  <rect x="520" y="390" width="160" height="180" rx="18" fill="#DDD8EE"/>
  <rect x="495" y="610" width="210" height="26" rx="13" fill="#8779B3" opacity="0.45"/>
  <text x="600" y="462" text-anchor="middle" font-size="30" font-family="Georgia, serif" fill="#2e2e2e">Lavender Smoke</text>
  <text x="600" y="502" text-anchor="middle" font-size="18" font-family="Arial, sans-serif" letter-spacing="2" fill="#666">CURATED HOME GOODS</text>
  <text x="600" y="548" text-anchor="middle" font-size="20" font-family="Arial, sans-serif" fill="#8779B3">Ceramic Candle</text>
  <text x="70" y="495" font-size="34" font-family="Georgia, serif" fill="#1f1f1f">Terra Ceramic</text><text x="70" y="537" font-size="34" font-family="Georgia, serif" fill="#1f1f1f">Candle</text>
  <text x="70" y="590" font-size="24" font-family="Arial, sans-serif" letter-spacing="2" fill="#8779B3">LAVENDER SMOKE</text>
  <text x="70" y="628" font-size="18" font-family="Arial, sans-serif" letter-spacing="3" fill="#6f6f6f">CERAMIC CANDLE</text>
</svg>
